<svg xmlns="http://www.w3.org/2000/svg" fill="#af0d0d" version="1.1" viewBox="4.13 1.51 23.75 28.93" data-darkreader-inline-fill="" style="--darkreader-inline-fill: #8c0a0a;">

<g id="SVGRepo_bgCarrier" stroke-width="0"/>

<g id="SVGRepo_tracerCarrier" stroke-linecap="round" stroke-linejoin="round"/>

<g id="SVGRepo_iconCarrier"> <title>archery-target</title> <path d="M9.791 15.798c0 3.429 2.78 6.209 6.209 6.209s6.209-2.78 6.209-6.209-2.78-6.209-6.209-6.209-6.209 2.78-6.209 6.209zM16.003 12.066c2.062 0 3.734 1.672 3.734 3.734s-1.672 3.734-3.734 3.734c-2.062 0-3.734-1.672-3.734-3.734s1.672-3.734 3.734-3.734zM17.81 15.8c0 0.998-0.809 1.807-1.807 1.807s-1.807-0.809-1.807-1.807c0-0.998 0.809-1.807 1.807-1.807s1.807 0.809 1.807 1.807zM23.148 20.662c0-0 0-0 0-0l1.113 3.669c2.229-2.159 3.615-5.182 3.615-8.53 0-5.832-4.204-10.682-9.748-11.684l-0.79-2.606-3.232-0-0.818 2.727c-5.25 1.227-9.16 5.938-9.16 11.562 0 3.16 1.235 6.032 3.248 8.159l-1.944 6.482h2.926l1.466-4.5c1.304 0.796 2.773 1.348 4.345 1.592v2.909h3.251v-6.116c-0.461 0.076-0.934 0.116-1.416 0.116-0.629 0-1.243-0.068-1.834-0.196-1.236-0.267-2.374-0.799-3.351-1.533-0.927-0.696-1.71-1.575-2.294-2.582 0.004 0.008 0.009 0.015 0.014 0.023-0.747-1.278-1.175-2.765-1.175-4.353 0-3.384 1.946-6.314 4.78-7.732-0.001 0-0.001 0.001-0.002 0.001v0c1.163-0.582 2.475-0.91 3.863-0.91 1.146 0 2.239 0.223 3.239 0.628 3.167 1.282 5.402 4.386 5.402 8.013 0 1.803-0.553 3.478-1.498 4.863-0.636 0.932-1.449 1.733-2.392 2.355 0-0 0-0 0.001-0-0.989 0.652-2.12 1.107-3.336 1.308v3.264c1.571-0.187 3.048-0.681 4.369-1.42l1.401 4.271h2.926l-2.967-9.78c-0 0-0 0-0 0z"/> </g>

</svg>